<?xml version="1.0" encoding="utf-8"?>
<!-- Generator: Adobe Illustrator 21.0.0, SVG Export Plug-In . SVG Version: 6.00 Build 0)  -->
<svg version="1.1" id="Слой_1" xmlns="http://www.w3.org/2000/svg" xmlns:xlink="http://www.w3.org/1999/xlink" x="0px" y="0px"
	 viewBox="0 0 139 117" style="enable-background:new 0 0 139 117;" xml:space="preserve">
<style type="text/css">
	.st0{fill:#020203;}
	.st1{fill:#ED6A1D;}
	.st2{fill:#D3D3D3;}
	.st3{fill:#80BC41;}
	.st4{fill:#FFD23A;}
	.st5{fill:#FFFFFF;}
	.st6{fill:#7B7B7B;}
	.st7{fill:#1C110B;}
</style>
<g>
	<g>
		<g>
			<g>
				<path class="st0" d="M87.6,21.4c-1.5,0-3-0.6-4-1.7c-1.1-1.1-1.7-2.6-1.7-4c0-2.5,2.1-4.6,4.6-4.6c2,0,3.6,1.6,3.6,3.6
					c0,1.6-1.3,2.9-2.9,2.9c-1.3,0-2.3-1-2.3-2.3c0-0.4,0.3-0.7,0.7-0.7s0.7,0.3,0.7,0.7c0,0.4,0.4,0.8,0.8,0.8
					c0.8,0,1.4-0.6,1.4-1.4c0-1.2-1-2.2-2.2-2.2c-1.7,0-3.1,1.4-3.1,3.1c0,1.1,0.5,2.2,1.3,3c0.8,0.8,1.9,1.3,3,1.3
					c3.2,0,5.8-2.6,5.8-5.7c0-4.2-3.4-7.6-7.6-7.6H53c-4.2,0-7.6,3.4-7.6,7.6c0,3.2,2.6,5.7,5.8,5.7c2.3,0,4.3-2,4.3-4.3
					c0-1.7-1.4-3.1-3.1-3.1c-1.2,0-2.2,1-2.2,2.2c0,0.8,0.6,1.4,1.4,1.4c0.4,0,0.8-0.4,0.8-0.8c0-0.4,0.3-0.7,0.7-0.7
					s0.7,0.3,0.7,0.7c0,1.3-1,2.3-2.3,2.3c-1.6,0-2.9-1.3-2.9-2.9c0-2,1.6-3.6,3.6-3.6c2.5,0,4.6,2.1,4.6,4.6c0,3.1-2.7,5.8-5.8,5.8
					c-4,0-7.2-3.2-7.2-7.2c0-5,4.1-9.1,9.1-9.1h32.8c5,0,9.1,4.1,9.1,9.1C94.9,18.1,91.6,21.4,87.6,21.4z"/>
			</g>
			<g>
				<path class="st0" d="M80.3,10.8H58.4c-0.4,0-0.7-0.3-0.7-0.7c0-0.4,0.3-0.7,0.7-0.7h21.9c0.4,0,0.7,0.3,0.7,0.7
					C81.1,10.5,80.7,10.8,80.3,10.8z"/>
			</g>
			<g>
				<path class="st0" d="M79.4,14h-20c-0.4,0-0.7-0.3-0.7-0.7s0.3-0.7,0.7-0.7h20c0.4,0,0.7,0.3,0.7,0.7S79.8,14,79.4,14z"/>
			</g>
			<g>
				<path class="st0" d="M60,29.8c-0.4,0-0.7-0.3-0.7-0.7V16.2c0-0.4,0.3-0.7,0.7-0.7c0.4,0,0.7,0.3,0.7,0.7v12.8
					C60.7,29.5,60.4,29.8,60,29.8z"/>
			</g>
			<g>
				<path class="st0" d="M78.7,29.8c-0.4,0-0.7-0.3-0.7-0.7V16.2c0-0.4,0.3-0.7,0.7-0.7s0.7,0.3,0.7,0.7v12.8
					C79.4,29.5,79.1,29.8,78.7,29.8z"/>
			</g>
		</g>
	</g>
	<g>
		<path class="st1" d="M71.8,22.8L52.3,60.3c-0.3,0.6-1.2,0.2-1-0.4l15.4-39.4c0.1-0.3,0.4-0.4,0.7-0.3l4.1,1.9
			C71.8,22.2,71.9,22.5,71.8,22.8z"/>
		<path class="st1" d="M72.2,20.5l15.4,39.4c0.2,0.6-0.7,1-1,0.4L67.2,22.8c-0.1-0.3,0-0.6,0.3-0.7l4.1-1.9
			C71.8,20.1,72.1,20.2,72.2,20.5z"/>
		<g>
			<path class="st2" d="M70,26h-1.3c-2.3,0-4.2-1.9-4.2-4.2v-4.5c0-0.5,0.4-1,1-1h7.8c0.5,0,1,0.4,1,1v4.5C74.2,24.1,72.3,26,70,26z
				"/>
			<path d="M88.2,59.7L74.4,24.3c0.3-0.5,0.4-1.2,0.4-1.8v-5.3c0-0.8-0.6-1.4-1.4-1.4h-8.1c-0.8,0-1.4,0.6-1.4,1.4v5.3
				c0,0.8,0.2,1.5,0.6,2.1L50.8,59.7c-0.2,0.6,0,1.2,0.6,1.4c0.2,0.1,0.3,0.1,0.5,0.1c0.4,0,0.8-0.2,1-0.6l16.7-32.1l16.7,32.1
				c0.2,0.4,0.6,0.6,1,0.6c0.2,0,0.3,0,0.5-0.1C88.2,60.9,88.4,60.3,88.2,59.7z M65.1,17.1c0-0.1,0.1-0.2,0.2-0.2h8.1
				c0.1,0,0.2,0.1,0.2,0.2v5.3c0,1.6-1.3,2.9-2.9,2.9H68c-1.6,0-2.9-1.3-2.9-2.9V17.1z M52.4,58.9l13-33.2c0.7,0.6,1.7,1,2.7,1h0.5
				l0.3,0.6L52.4,58.9z M70.2,27.2l0.3-0.6h0.2c1.1,0,2.1-0.5,2.9-1.2l0,0l13.1,33.4L70.2,27.2z"/>
		</g>
		<g>
			<path class="st3" d="M69.6,23.1H69c-1.1,0-1.9-0.9-1.9-1.9v-0.6c0-1.1,0.9-1.9,1.9-1.9h0.6c1.1,0,1.9,0.9,1.9,1.9v0.6
				C71.5,22.2,70.7,23.1,69.6,23.1z"/>
			<path d="M69.9,23.7h-1.2c-1.2,0-2.2-1-2.2-2.2v-1.2c0-1.2,1-2.2,2.2-2.2h1.2c1.2,0,2.2,1,2.2,2.2v1.2
				C72.1,22.7,71.1,23.7,69.9,23.7z M68.7,19.3c-0.6,0-1,0.4-1,1v1.2c0,0.6,0.4,1,1,1h1.2c0.6,0,1-0.4,1-1v-1.2c0-0.6-0.4-1-1-1
				H68.7z"/>
		</g>
	</g>
	<g>
		<path class="st4" d="M91.6,46.3H47.5c-1.9,0-3.4-1.5-3.4-3.4v-1c0-1.9,1.5-3.4,3.4-3.4h44.1c1.9,0,3.4,1.5,3.4,3.4v1
			C94.9,44.7,93.4,46.3,91.6,46.3z"/>
		<line class="st5" x1="47.9" y1="38.5" x2="47.9" y2="46.3"/>
		<g>
			<line class="st5" x1="91.1" y1="38.5" x2="91.1" y2="46.3"/>
			<path d="M92.3,37.9H46.7c-1.8,0-3.3,1.5-3.3,3.2v2.5c0,1.8,1.5,3.2,3.3,3.2h45.6c1.8,0,3.3-1.5,3.3-3.2v-2.5
				C95.5,39.3,94.1,37.9,92.3,37.9z M90.5,39.1v6.6h-42v-6.6H90.5z M44.7,43.6v-2.5c0-1.1,0.9-2,2-2h0.6v6.6h-0.6
				C45.6,45.7,44.7,44.7,44.7,43.6z M94.3,43.6c0,1.1-0.9,2-2,2h-0.6v-6.6h0.6c1.1,0,2,0.9,2,2V43.6z"/>
		</g>
		<g>
			<path class="st3" d="M75,43.9H64c-0.7,0-1.3-0.6-1.3-1.3v-0.4c0-0.7,0.6-1.3,1.3-1.3H75c0.7,0,1.3,0.6,1.3,1.3v0.4
				C76.3,43.3,75.8,43.9,75,43.9z"/>
			<path d="M75.2,44.5H63.8c-0.9,0-1.7-0.8-1.7-1.7V42c0-0.9,0.8-1.7,1.7-1.7h11.5c0.9,0,1.7,0.8,1.7,1.7v0.8
				C76.9,43.7,76.2,44.5,75.2,44.5z M63.8,41.5c-0.3,0-0.5,0.2-0.5,0.5v0.8c0,0.3,0.2,0.5,0.5,0.5h11.5c0.3,0,0.5-0.2,0.5-0.5V42
				c0-0.3-0.2-0.5-0.5-0.5H63.8z"/>
		</g>
		<g>
			<ellipse class="st3" cx="55.3" cy="42.4" rx="1.8" ry="1.8"/>
			<path d="M55.3,44.8c-1.3,0-2.4-1.1-2.4-2.4c0-1.3,1.1-2.4,2.4-2.4c1.3,0,2.4,1.1,2.4,2.4C57.7,43.7,56.6,44.8,55.3,44.8z
				 M55.3,41.1c-0.7,0-1.2,0.6-1.2,1.2c0,0.7,0.5,1.2,1.2,1.2s1.2-0.6,1.2-1.2C56.5,41.7,55.9,41.1,55.3,41.1z"/>
		</g>
		<g>
			<ellipse class="st3" cx="83.7" cy="42.4" rx="1.8" ry="1.8"/>
			<path d="M83.7,44.8c-1.3,0-2.4-1.1-2.4-2.4c0-1.3,1.1-2.4,2.4-2.4c1.3,0,2.4,1.1,2.4,2.4C86.1,43.7,85,44.8,83.7,44.8z
				 M83.7,41.1c-0.7,0-1.2,0.6-1.2,1.2c0,0.7,0.5,1.2,1.2,1.2s1.2-0.6,1.2-1.2C84.9,41.7,84.4,41.1,83.7,41.1z"/>
		</g>
	</g>
	<g>
		<path class="st0" d="M64.6,60.3c-0.4,0-0.7-0.3-0.7-0.7V49.3c0-0.4,0.3-0.7,0.7-0.7s0.7,0.3,0.7,0.7v10.2
			C65.4,60,65.1,60.3,64.6,60.3z"/>
	</g>
	<g>
		<path class="st0" d="M69.3,60.3c-0.4,0-0.7-0.3-0.7-0.7V49.3c0-0.4,0.3-0.7,0.7-0.7s0.7,0.3,0.7,0.7v10.2
			C70.1,60,69.7,60.3,69.3,60.3z"/>
	</g>
	<g>
		<path class="st0" d="M74,60.3c-0.4,0-0.7-0.3-0.7-0.7V49.3c0-0.4,0.3-0.7,0.7-0.7s0.7,0.3,0.7,0.7v10.2C74.8,60,74.4,60.3,74,60.3
			z"/>
	</g>
	<g>
		<path d="M52.1,8C52.1,8,52.1,8,52.1,8C52.1,8,52.1,8,52.1,8C52.1,8,52.1,8,52.1,8z"/>
		<path d="M85.8,3.7c0,0,0.1,0,0.1,0C80.8,1.3,75.3,0,69.5,0c-5.8,0-11.3,1.3-16.4,3.7H85.8z"/>
		<path d="M96.3,11.1c-0.3-0.3-0.6-0.6-0.9-0.8c0.5,1.2,0.7,2.5,0.7,3.8c0,0.9-0.1,1.8-0.4,2.6c4.8,6,7.5,13.3,7.5,21.1
			c0,8.7-3.3,17-9.3,23.3c0.5,0.4,0.8,1.1,0.8,1.8v3.2c0.5-0.5,1.1-1,1.6-1.5c7.2-7.2,11.1-16.7,11.1-26.8S103.5,18.2,96.3,11.1z"/>
		<path d="M80.8,69.7c-3.6,1.3-7.4,1.9-11.3,1.9s-7.7-0.7-11.3-1.9h-9.3c6.1,4,13.2,6.1,20.7,6.1s14.6-2.1,20.7-6.1H80.8z"/>
		<path d="M44.1,63c0-0.2,0-0.4,0.1-0.6v0h0c0.1-0.5,0.4-1,0.9-1.3c-6-6.3-9.2-14.5-9.2-23.2c0-7.7,2.6-15,7.3-20.9
			c-0.3-0.9-0.5-1.9-0.5-2.9c0-1.2,0.2-2.4,0.6-3.4c-0.1,0.1-0.3,0.3-0.4,0.4c-7.2,7.2-11.1,16.7-11.1,26.8
			c0,10.1,3.9,19.6,11.1,26.8c0.4,0.4,0.9,0.9,1.4,1.3V63z"/>
	</g>
	<g>
		<path class="st6" d="M90.3,67.7H48.4c-1.3,0-2.3-1-2.3-2.3v-0.7c0-1.3,1-2.3,2.3-2.3h41.9c1.3,0,2.3,1,2.3,2.3v0.7
			C92.6,66.6,91.5,67.7,90.3,67.7z"/>
		<path d="M90.6,68.4H48c-1.4,0-2.6-1.2-2.6-2.6v-1.4c0-1.4,1.2-2.6,2.6-2.6h42.6c1.4,0,2.6,1.2,2.6,2.6v1.4
			C93.2,67.2,92.1,68.4,90.6,68.4z M48,63.1c-0.7,0-1.2,0.6-1.2,1.2v1.4c0,0.7,0.6,1.2,1.2,1.2h42.6c0.7,0,1.2-0.6,1.2-1.2v-1.4
			c0-0.7-0.6-1.2-1.2-1.2H48z"/>
	</g>
	<g>
		<path class="st0" d="M60,60.4c-0.4,0-0.7-0.3-0.7-0.7v-7.8c0-0.4,0.3-0.7,0.7-0.7s0.7,0.3,0.7,0.7v7.8
			C60.8,60.1,60.4,60.4,60,60.4z"/>
	</g>
	<g>
		<path class="st0" d="M78.8,60.4c-0.4,0-0.7-0.3-0.7-0.7v-7.8c0-0.4,0.3-0.7,0.7-0.7s0.7,0.3,0.7,0.7v7.8
			C79.5,60.1,79.2,60.4,78.8,60.4z"/>
	</g>
</g>
<g>
	<path class="st7" d="M22.7,108.8c-1-2.2-1.9-4.4-2.9-6.6c-1-2.2-1.9-4.4-2.9-6.6c-1-2.2-1.9-4.4-2.8-6.6l0-0.1c0,0,0,0,0-0.1
		c0-0.1-0.1-0.2-0.2-0.3c-0.1-0.1-0.2-0.2-0.4-0.3c-0.1-0.1-0.3-0.1-0.6-0.1h-0.1c-0.4,0-0.7,0.1-0.9,0.3c-0.1,0.1-0.2,0.3-0.2,0.4
		L0.1,115.3c0,0.1,0,0.1-0.1,0.2c0,0.1,0,0.2,0,0.4c0,0.2,0.1,0.8,1.1,0.8h23.5c0.6,0,0.8-0.2,0.9-0.4l0.7,0.7l-0.7-1.6
		C24.6,113.2,23.7,111,22.7,108.8z M20.1,112.7H5.5l7.3-17.2L20.1,112.7z"/>
	<path class="st7" d="M48.1,94.4L48.1,94.4c-1.1-1.1-2.3-2-3.8-2.7c-1.4-0.7-2.8-1.1-4.4-1.3v-0.9c0-0.3-0.1-0.6-0.3-0.9
		c-0.2-0.2-0.5-0.3-0.9-0.3h-1.5c-0.4,0-0.7,0.1-0.9,0.3c-0.2,0.2-0.3,0.5-0.3,0.9v0.9c-1.5,0.2-3,0.7-4.3,1.4
		c-1.4,0.7-2.7,1.6-3.7,2.7c-1.1,1.1-1.9,2.3-2.5,3.7c-0.6,1.4-0.9,2.9-0.9,4.4c0,1.6,0.3,3.1,0.9,4.5c0.6,1.4,1.4,2.6,2.5,3.7
		c1.1,1.1,2.3,2,3.7,2.7c1.3,0.7,2.8,1.1,4.3,1.3v0.9c0,0.8,0.4,1.2,1.2,1.2h1.5c0.4,0,0.6-0.1,0.9-0.3c0.2-0.2,0.3-0.5,0.3-0.9
		v-0.9c1.6-0.2,3-0.7,4.4-1.3c1.4-0.7,2.7-1.6,3.8-2.7c1.1-1.1,1.9-2.3,2.5-3.7c0.6-1.4,0.9-2.9,0.9-4.5c0-1.6-0.3-3-0.9-4.4
		C50,96.7,49.2,95.5,48.1,94.4z M47.5,102.5c0,1.1-0.2,2.1-0.6,3c-0.4,0.9-1,1.7-1.7,2.5c-0.7,0.7-1.6,1.3-2.5,1.8
		c-0.9,0.4-1.8,0.7-2.8,0.9V94.3c1,0.2,2,0.5,2.8,0.9c1,0.5,1.8,1.1,2.5,1.8c0.7,0.7,1.3,1.5,1.7,2.5
		C47.3,100.4,47.5,101.4,47.5,102.5z M36,94.4v16.4c-1-0.2-2-0.5-2.8-0.9c-1-0.5-1.8-1.1-2.5-1.8c-0.7-0.7-1.2-1.5-1.6-2.5
		c-0.4-0.9-0.6-1.9-0.6-3c0-1.1,0.2-2.1,0.6-3c0.4-0.9,0.9-1.8,1.6-2.5c0.7-0.7,1.5-1.3,2.5-1.8C34,94.8,35,94.5,36,94.4z"/>
	<path class="st7" d="M79.8,88.3h-2.5c-0.4,0-0.7,0.2-0.9,0.4l-16,21.2V89.1l0-0.1c-0.1-0.5-0.5-0.7-1-0.7h-1.9
		c-0.2,0-0.5,0.1-0.7,0.2c-0.2,0.2-0.4,0.4-0.4,0.7v26.6c0,0.6,0.4,1,1.1,1h2.7l2.5-3.4l0.4-0.6l13.8-18.5v22.4h3
		c0.6,0,0.9-0.3,1-0.9V89.3c0-0.3-0.1-0.5-0.3-0.7C80.4,88.3,80.1,88.3,79.8,88.3z"/>
	<path class="st7" d="M109.5,88.5c-0.2-0.2-0.4-0.2-0.7-0.2h-1.9c-0.3,0-0.5,0.1-0.7,0.3c-0.2,0.2-0.3,0.4-0.3,0.7v7H90.1v-7
		c0-0.3-0.1-0.5-0.3-0.7c-0.2-0.2-0.4-0.3-0.7-0.3h-2c-0.4,0-0.6,0.2-0.7,0.3c-0.2,0.2-0.3,0.4-0.3,0.7v26.6c0,0.6,0.4,1,1,1h1.9
		c0.7,0,1-0.4,1-1v-7.6h15.7v7.6c0,0.6,0.4,1,1,1h1.9c0.3,0,0.6-0.1,0.8-0.2c0.2-0.2,0.3-0.4,0.3-0.7V89.2
		C109.8,88.9,109.7,88.7,109.5,88.5z M105.9,100.1v4.1H90.1v-4.1H105.9z"/>
	<path class="st7" d="M138.3,115.3c-0.9-2.2-1.8-4.4-2.8-6.6c-1-2.2-1.9-4.4-2.9-6.6c-1-2.2-1.9-4.4-2.9-6.6c-1-2.2-1.9-4.4-2.8-6.6
		l0-0.1c0,0,0,0,0-0.1c0-0.1-0.1-0.2-0.2-0.3c-0.1-0.1-0.2-0.2-0.4-0.3c-0.1-0.1-0.3-0.1-0.6-0.1h-0.1c-0.4,0-0.7,0.1-0.9,0.3
		c-0.1,0.1-0.2,0.3-0.2,0.4l-11.6,26.4c0,0.1,0,0.1-0.1,0.2c0,0.1,0,0.2,0,0.4c0,0.2,0.1,0.8,1.1,0.8h23.5c0.6,0,0.8-0.2,0.9-0.4
		l0.7,0.7L138.3,115.3z M132.9,112.7h-14.6l7.3-17.2L132.9,112.7z"/>
</g>
</svg>
